<svg width="41" height="41" viewBox="0 0 41 41" fill="none" xmlns="http://www.w3.org/2000/svg">
<circle cx="20.5" cy="20.5" r="20.5" fill="#2C2D84"/>
<path d="M24.375 18.0542C24.375 17.9006 24.4343 17.7533 24.5398 17.6447C24.6452 17.5361 24.7883 17.475 24.9375 17.475H27.1875C27.3367 17.475 27.4798 17.5361 27.5852 17.6447C27.6907 17.7533 27.75 17.9006 27.75 18.0542V19.2126C27.75 19.3662 27.6907 19.5135 27.5852 19.6221C27.4798 19.7307 27.3367 19.7918 27.1875 19.7918H24.9375C24.7883 19.7918 24.6452 19.7307 24.5398 19.6221C24.4343 19.5135 24.375 19.3662 24.375 19.2126V18.0542Z" fill="white"/>
<path d="M14.25 14C13.6533 14 13.081 14.2441 12.659 14.6785C12.2371 15.113 12 15.7023 12 16.3167V25.5836C12 26.198 12.2371 26.7873 12.659 27.2217C13.081 27.6562 13.6533 27.9003 14.25 27.9003H27.75C28.3467 27.9003 28.919 27.6562 29.341 27.2217C29.7629 26.7873 30 26.198 30 25.5836V16.3167C30 15.7023 29.7629 15.113 29.341 14.6785C28.919 14.2441 28.3467 14 27.75 14H14.25ZM28.875 16.3167V22.1085H13.125V16.3167C13.125 16.0095 13.2435 15.7149 13.4545 15.4976C13.6655 15.2804 13.9516 15.1584 14.25 15.1584H27.75C28.0484 15.1584 28.3345 15.2804 28.5455 15.4976C28.7565 15.7149 28.875 16.0095 28.875 16.3167ZM27.75 26.7419H14.25C13.9516 26.7419 13.6655 26.6199 13.4545 26.4027C13.2435 26.1854 13.125 25.8908 13.125 25.5836V24.4252H28.875V25.5836C28.875 25.8908 28.7565 26.1854 28.5455 26.4027C28.3345 26.6199 28.0484 26.7419 27.75 26.7419Z" fill="white"/>
</svg>
