<svg width="41" height="41" viewBox="0 0 41 41" fill="none" xmlns="http://www.w3.org/2000/svg">
<circle cx="20.5" cy="20.5" r="20.5" fill="#2C2D84"/>
<path d="M12.68 19.8L10.97 19.836L11.924 18.414L11.222 18L10.34 19.494L9.476 18L8.756 18.414L9.71 19.836L8 19.8V20.574L9.71 20.538L8.756 21.96L9.476 22.374L10.34 20.862L11.222 22.374L11.924 21.96L10.97 20.538L12.68 20.574V19.8Z" fill="white"/>
<path d="M19.6409 19.8L17.9309 19.836L18.8849 18.414L18.1829 18L17.3009 19.494L16.4369 18L15.7169 18.414L16.6709 19.836L14.9609 19.8V20.574L16.6709 20.538L15.7169 21.96L16.4369 22.374L17.3009 20.862L18.1829 22.374L18.8849 21.96L17.9309 20.538L19.6409 20.574V19.8Z" fill="white"/>
<path d="M26.6019 19.8L24.8919 19.836L25.8459 18.414L25.1439 18L24.2619 19.494L23.3979 18L22.6779 18.414L23.6319 19.836L21.9219 19.8V20.574L23.6319 20.538L22.6779 21.96L23.3979 22.374L24.2619 20.862L25.1439 22.374L25.8459 21.96L24.8919 20.538L26.6019 20.574V19.8Z" fill="white"/>
<path d="M33.5628 19.8L31.8528 19.836L32.8068 18.414L32.1048 18L31.2228 19.494L30.3588 18L29.6388 18.414L30.5928 19.836L28.8828 19.8V20.574L30.5928 20.538L29.6388 21.96L30.3588 22.374L31.2228 20.862L32.1048 22.374L32.8068 21.96L31.8528 20.538L33.5628 20.574V19.8Z" fill="white"/>
</svg>
