<svg width="43" height="43" viewBox="0 0 43 43" fill="none" xmlns="http://www.w3.org/2000/svg">
<path d="M21.4999 0.920166C16.0418 0.920166 10.8072 3.08841 6.94767 6.94791C3.08817 10.8074 0.919922 16.042 0.919922 21.5002C0.919922 26.9583 3.08817 32.1929 6.94767 36.0524C10.8072 39.9119 16.0418 42.0802 21.4999 42.0802C26.9581 42.0802 32.1927 39.9119 36.0522 36.0524C39.9117 32.1929 42.0799 26.9583 42.0799 21.5002C42.0799 16.042 39.9117 10.8074 36.0522 6.94791C32.1927 3.08841 26.9581 0.920166 21.4999 0.920166ZM33.7499 23.9502H23.9499V33.7502H19.0499V23.9502H9.24992V19.0502H19.0499V9.25017H23.9499V19.0502H33.7499V23.9502Z" fill="#2C2D84"/>
</svg>
